<svg width="55" height="55" viewBox="0 0 55 55" fill="none" xmlns="http://www.w3.org/2000/svg">
<path d="M42.1094 0H12.8906C5.77133 0 0 5.77133 0 12.8906V42.1094C0 49.2287 5.77133 55 12.8906 55H42.1094C49.2287 55 55 49.2287 55 42.1094V12.8906C55 5.77133 49.2287 0 42.1094 0Z" fill="url(#paint0_radial_263_27)"/>
<path d="M42.1094 0H12.8906C5.77133 0 0 5.77133 0 12.8906V42.1094C0 49.2287 5.77133 55 12.8906 55H42.1094C49.2287 55 55 49.2287 55 42.1094V12.8906C55 5.77133 49.2287 0 42.1094 0Z" fill="url(#paint1_radial_263_27)"/>
<path d="M27.5019 6C21.663 6 20.93 6.02558 18.6368 6.12986C16.3479 6.23478 14.7855 6.59705 13.4186 7.12874C12.0043 7.67784 10.8048 8.41249 9.60985 9.60788C8.41381 10.8031 7.67915 12.0025 7.12832 13.4161C6.59512 14.7835 6.23241 16.3466 6.12943 18.6343C6.02687 20.9277 6 21.6609 6 27.5C6 33.3391 6.0258 34.0697 6.12986 36.3629C6.23521 38.6517 6.59749 40.2141 7.12875 41.5811C7.67829 42.9953 8.41295 44.1948 9.60835 45.3898C10.8031 46.5858 12.0026 47.3222 13.4158 47.8713C14.7838 48.403 16.3464 48.7652 18.6349 48.8701C20.9283 48.9744 21.6606 49 27.4994 49C33.339 49 34.0695 48.9744 36.3627 48.8701C38.6516 48.7652 40.2157 48.403 41.5838 47.8713C42.9974 47.3222 44.1952 46.5858 45.3897 45.3898C46.5858 44.1948 47.3202 42.9953 47.8713 41.5817C48.3997 40.2141 48.7626 38.6513 48.8701 36.3633C48.9731 34.0701 49 33.3391 49 27.5C49 21.6609 48.9731 20.9282 48.8701 18.6348C48.7626 16.3459 48.3997 14.7837 47.8713 13.4168C47.3202 12.0025 46.5858 10.8031 45.3897 9.60788C44.1939 8.41206 42.9978 7.67741 41.5825 7.12895C40.2119 6.59705 38.6486 6.23456 36.3597 6.12986C34.0663 6.02558 33.3362 6 27.4953 6H27.5019ZM25.5732 9.87448C26.1457 9.87362 26.7845 9.87448 27.5019 9.87448C33.2427 9.87448 33.9229 9.89512 36.1899 9.9981C38.2861 10.094 39.4239 10.4442 40.1818 10.7386C41.1852 11.1281 41.9005 11.594 42.6526 12.3467C43.4051 13.0992 43.8707 13.8158 44.2614 14.8192C44.5557 15.576 44.9064 16.7138 45.0019 18.81C45.1048 21.0765 45.1272 21.7572 45.1272 27.4951C45.1272 33.2329 45.1048 33.9138 45.0019 36.1801C44.906 38.2763 44.5557 39.4141 44.2614 40.1711C43.8718 41.1745 43.4051 41.8889 42.6526 42.641C41.9001 43.3935 41.1856 43.8592 40.1818 44.249C39.4248 44.5446 38.2861 44.894 36.1899 44.9899C33.9233 45.0928 33.2427 45.1152 27.5019 45.1152C21.761 45.1152 21.0805 45.0928 18.8142 44.9899C16.718 44.8931 15.5802 44.5429 14.8217 44.2485C13.8185 43.8588 13.1017 43.3931 12.3492 42.6406C11.5967 41.8881 11.131 41.1732 10.7403 40.1694C10.446 39.4124 10.0953 38.2746 9.99986 36.1784C9.89688 33.9119 9.87624 33.2312 9.87624 27.4897C9.87624 21.7484 9.89688 21.0711 9.99986 18.8046C10.0957 16.7084 10.446 15.5706 10.7403 14.8128C11.1301 13.8094 11.5967 13.0928 12.3494 12.3403C13.1019 11.5878 13.8185 11.1219 14.8219 10.7315C15.5798 10.4358 16.718 10.0865 18.8142 9.99014C20.7976 9.90049 21.5662 9.87362 25.5732 9.8691V9.87448ZM38.9786 13.4443C37.5543 13.4443 36.3986 14.5988 36.3986 16.0234C36.3986 17.4478 37.5543 18.6034 38.9786 18.6034C40.403 18.6034 41.5586 17.4478 41.5586 16.0234C41.5586 14.5991 40.403 13.4434 38.9786 13.4434V13.4443ZM27.5019 16.4588C21.4045 16.4588 16.4608 21.4024 16.4608 27.5C16.4608 33.5976 21.4045 38.5389 27.5019 38.5389C33.5996 38.5389 38.5415 33.5976 38.5415 27.5C38.5415 21.4027 33.5991 16.4588 27.5015 16.4588H27.5019ZM27.5019 20.3333C31.4599 20.3333 34.6687 23.5417 34.6687 27.5C34.6687 31.4579 31.4599 34.6667 27.5019 34.6667C23.5438 34.6667 20.3353 31.4579 20.3353 27.5C20.3353 23.5417 23.5438 20.3333 27.5019 20.3333Z" fill="white"/>
<defs>
<radialGradient id="paint0_radial_263_27" cx="0" cy="0" r="1" gradientUnits="userSpaceOnUse" gradientTransform="translate(14.6094 59.2361) rotate(-90) scale(54.5091 50.6978)">
<stop stop-color="#FFDD55"/>
<stop offset="0.1" stop-color="#FFDD55"/>
<stop offset="0.5" stop-color="#FF543E"/>
<stop offset="1" stop-color="#C837AB"/>
</radialGradient>
<radialGradient id="paint1_radial_263_27" cx="0" cy="0" r="1" gradientUnits="userSpaceOnUse" gradientTransform="translate(-9.21271 3.96193) rotate(78.681) scale(24.3659 100.437)">
<stop stop-color="#3771C8"/>
<stop offset="0.128" stop-color="#3771C8"/>
<stop offset="1" stop-color="#6600FF" stop-opacity="0"/>
</radialGradient>
</defs>
</svg>
