<svg width="65" height="60" viewBox="0 0 65 60" fill="none" xmlns="http://www.w3.org/2000/svg">
<path d="M52.873 2H12.127C6.53399 2 2 6.26908 2 11.5353V48.4647C2 53.7309 6.53399 58 12.127 58H52.873C58.466 58 63 53.7309 63 48.4647V11.5353C63 6.26908 58.466 2 52.873 2Z" fill="#330000"/>
<path d="M31.4981 35.9495H21.4257L19.3761 41.967C19.3482 42.0767 19.2807 42.1739 19.1852 42.2416C19.0897 42.3093 18.9721 42.3434 18.8528 42.338H13.7511C13.4604 42.338 13.3586 42.1868 13.4459 41.8844L22.1668 18.1441C22.2539 17.8969 22.3413 17.6154 22.4283 17.2993C22.5426 16.7492 22.601 16.1905 22.6028 15.6301C22.5968 15.5909 22.6006 15.5509 22.6139 15.5134C22.6271 15.4758 22.6494 15.4417 22.679 15.4136C22.7086 15.3856 22.7447 15.3645 22.7845 15.352C22.8242 15.3394 22.8665 15.3358 22.908 15.3414H29.8411C30.0443 15.3414 30.1605 15.4103 30.19 15.5478L40.088 41.9257C40.1754 42.2007 40.088 42.3383 39.8265 42.338H34.1578C34.0605 42.3482 33.9625 42.3246 33.8823 42.2715C33.802 42.2184 33.745 42.1395 33.7218 42.0495L31.4981 35.9495ZM22.9953 30.7563H29.8848L29.7865 30.4499L29.6289 29.9646L29.5164 29.6238L29.3369 29.0871L28.9553 27.9575L28.6196 26.9559L27.7479 24.3471C27.531 23.6986 27.3228 23.0475 27.1233 22.394L26.9639 21.8636L26.7775 21.2365L26.4931 20.2645L26.4398 20.0814H26.3964C26.1782 21.0707 25.9125 22.0501 25.6001 23.0166L24.9532 24.9836L24.5972 26.0703L24.2379 27.1705C24.1729 27.3692 24.1084 27.5658 24.0437 27.7599L23.8507 28.3355L23.6588 28.8975L23.4678 29.4457L23.2779 29.9802C23.2149 30.1561 23.152 30.3296 23.0893 30.501L22.9953 30.7563ZM45.9741 19.7103C45.5294 19.7272 45.0859 19.6552 44.6726 19.4989C44.2594 19.3427 43.8857 19.1058 43.5759 18.8036C43.267 18.4884 43.0271 18.1185 42.8699 17.7153C42.7128 17.3122 42.6415 16.8836 42.6601 16.4543C42.6443 16.0293 42.7235 15.6059 42.8926 15.2118C43.0616 14.8176 43.3167 14.4617 43.6412 14.1671C44.2671 13.5991 45.1006 13.2813 45.9682 13.2798L46.0612 13.2807C47.1078 13.2807 47.9292 13.5759 48.5251 14.1668C48.8259 14.4738 49.0596 14.8339 49.213 15.2264C49.3663 15.6189 49.4363 16.0362 49.4188 16.4543C49.4371 16.8853 49.3636 17.3154 49.2025 17.719C49.0415 18.1227 48.7963 18.4916 48.4814 18.8039C48.1635 19.1 47.7862 19.3331 47.3716 19.4893C46.957 19.6455 46.5135 19.7217 46.0673 19.7135L45.9741 19.7103ZM42.9653 41.9257V22.2246C42.9653 21.9774 43.0811 21.8535 43.3142 21.8535H48.6777C48.91 21.8535 49.0263 21.9771 49.0265 22.2246V41.9257C49.0265 42.2007 48.9103 42.3383 48.6777 42.338H43.3578C43.11 42.338 42.9795 42.2147 42.9666 41.9679L42.9653 41.9257Z" fill="#FF9A00"/>
</svg>
