<svg width="65" height="60" viewBox="0 0 65 60" fill="none" xmlns="http://www.w3.org/2000/svg">
<path d="M52.873 2H12.127C6.53399 2 2 6.26908 2 11.5353V48.4647C2 53.7309 6.53399 58 12.127 58H52.873C58.466 58 63 53.7309 63 48.4647V11.5353C63 6.26908 58.466 2 52.873 2Z" fill="#001E36"/>
<path d="M14.6362 42.0085V15.6714C14.6362 15.4794 14.7236 15.3829 14.898 15.3829L15.174 15.3822L15.6458 15.3774L16.3013 15.3651L18.4976 15.3212L20.8526 15.2799C21.6809 15.2665 22.502 15.2593 23.316 15.2593C25.525 15.2593 27.3854 15.5204 28.8974 16.0424C30.2613 16.4785 31.5051 17.1965 32.5384 18.1443C33.4143 18.9659 34.0912 19.9574 34.5224 21.0502C34.9303 22.1137 35.137 23.2368 35.1331 24.368C35.1331 26.5666 34.595 28.3801 33.5195 29.8086C32.4675 31.2022 31.0002 32.268 29.3046 32.87L29.1592 32.9204C27.3887 33.5446 25.428 33.7702 23.2777 33.7844L22.9435 33.7854L22.4477 33.783L22.1976 33.7796L21.9188 33.7734L21.7507 33.7671L21.6486 33.7621L21.3975 33.7534L21.0905 33.7474L20.6284 33.7443L20.5256 33.7441V41.9672C20.5332 42.0176 20.5283 42.069 20.5113 42.1173C20.4943 42.1656 20.4656 42.2095 20.4275 42.2455C20.3894 42.2815 20.343 42.3087 20.2919 42.3248C20.2407 42.3408 20.1864 42.3455 20.133 42.3382H14.9417C14.7378 42.3382 14.6362 42.2288 14.6362 42.0085ZM20.5258 20.3288V28.9189C20.8738 28.9454 21.2228 28.9592 21.5719 28.9602H23.0111C24.0033 28.957 24.9897 28.8174 25.9394 28.5457L26.1288 28.4898C26.9927 28.2472 27.7647 27.775 28.3528 27.1294C28.8992 26.5203 29.1823 25.681 29.2018 24.6114L29.2031 24.4916C29.2259 23.6943 29.0066 22.9076 28.5706 22.2248C28.1124 21.5644 27.4502 21.0535 26.6739 20.7615C25.6603 20.3891 24.5776 20.214 23.4907 20.2465L22.9377 20.2479L22.5888 20.2508L22.256 20.2549L21.7862 20.2635L21.4435 20.2726L21.2655 20.2789L21.0276 20.2894L20.8249 20.3012L20.7094 20.3098L20.6096 20.319L20.5657 20.3238L20.5258 20.3288ZM51.9924 27.357C51.2318 26.9875 50.425 26.7099 49.591 26.5309L49.398 26.4915C48.4805 26.2925 47.5439 26.1829 46.6028 26.1644L46.3677 26.1618C45.8159 26.1476 45.265 26.2101 44.7325 26.3473C44.3935 26.4185 44.0921 26.601 43.8819 26.8623C43.7398 27.0714 43.6642 27.3146 43.6641 27.5631C43.672 27.8041 43.764 28.0359 43.9256 28.2224C44.157 28.4782 44.4352 28.6926 44.747 28.8553L44.8414 28.9026C45.4631 29.219 46.1037 29.501 46.7599 29.7474C48.2233 30.2104 49.6216 30.8402 50.924 31.6227C51.8114 32.1521 52.5456 32.8815 53.0609 33.7455C53.494 34.5635 53.711 35.4685 53.6931 36.3831C53.7192 37.591 53.354 38.7775 52.6465 39.7837C51.8891 40.8049 50.8371 41.5988 49.6159 42.0709C48.337 42.6022 46.7663 42.8766 44.9041 42.8946L44.7107 42.8955C43.5563 42.9066 42.4035 42.8111 41.2687 42.6104L41.026 42.5658C40.0705 42.4001 39.1405 42.1232 38.2571 41.7414C38.1684 41.698 38.0933 41.6332 38.0397 41.5535C37.9861 41.4738 37.9558 41.3821 37.9519 41.2878V36.7954C37.9467 36.7518 37.9541 36.7077 37.9733 36.6678C37.9926 36.6278 38.0229 36.5936 38.0611 36.5686C38.0985 36.5486 38.1415 36.5399 38.1844 36.5436C38.2272 36.5473 38.2678 36.5632 38.3008 36.5893C39.344 37.1707 40.4767 37.5949 41.6582 37.8464C42.6996 38.0932 43.7679 38.2246 44.8414 38.2381C45.8586 38.2381 46.6071 38.1142 47.087 37.867C47.3037 37.7733 47.487 37.6222 47.6147 37.432C47.7424 37.2418 47.809 37.0207 47.8065 36.7954C47.8065 36.4388 47.5884 36.0951 47.1525 35.7651C46.9697 35.6269 46.7074 35.4764 46.3661 35.3139L46.2029 35.2381L46.0287 35.1606L45.9373 35.1212L45.7458 35.041C45.7126 35.0273 45.6794 35.0137 45.6461 35.0002L45.4379 34.9177L45.3294 34.8757L45.1045 34.7905L44.9877 34.7473L44.7457 34.6592L44.4926 34.5697C43.1234 34.1192 41.8252 33.4953 40.6334 32.715C39.7811 32.1546 39.0793 31.4136 38.5842 30.5511C38.1553 29.739 37.9386 28.8415 37.9519 27.9339C37.9495 26.8434 38.2664 25.7735 38.8675 24.8427C39.5531 23.8179 40.5372 23.0019 41.7019 22.4936C42.9808 21.8895 44.5794 21.5871 46.4982 21.5866C47.622 21.5781 48.7447 21.6539 49.8558 21.8134C50.6604 21.9099 51.447 22.111 52.1933 22.411C52.3134 22.4437 52.4101 22.5274 52.4548 22.6378C52.4845 22.7384 52.499 22.8423 52.4985 22.947V27.1098C52.5048 27.2082 52.4548 27.3025 52.3677 27.357C52.3094 27.3844 52.2452 27.3986 52.1801 27.3986C52.115 27.3986 52.0507 27.3844 51.9924 27.357Z" fill="#31A8FF"/>
</svg>
