<svg width="61" height="56" viewBox="0 0 61 56" fill="none" xmlns="http://www.w3.org/2000/svg">
<g clip-path="url(#clip0_185_2053)">
<path d="M52.209 -2H8.79102C2.8313 -2 -2 2.5667 -2 8.2V47.704C-2 53.3373 2.8313 57.904 8.79102 57.904H52.209C58.1687 57.904 63 53.3373 63 47.704V8.2C63 2.5667 58.1687 -2 52.209 -2Z" fill="#00005B"/>
<path d="M24.1125 33.84H14.0398L11.9903 39.869C11.964 39.9724 11.9025 40.0647 11.8153 40.1318C11.7281 40.1989 11.62 40.237 11.5076 40.2403L6.36549 40.2401C6.07451 40.2401 5.9727 40.0889 6.06029 39.7865L14.7812 16.1443L14.8683 15.8959L14.8972 15.811L14.9556 15.6334C14.9846 15.5417 15.0135 15.4445 15.0427 15.3391C15.157 14.7893 15.2154 14.2303 15.2172 13.6699C15.2113 13.6307 15.2151 13.5908 15.2284 13.5533C15.2416 13.5157 15.2639 13.4816 15.2935 13.4536C15.3231 13.4256 15.3592 13.4046 15.3989 13.392C15.4387 13.3795 15.4809 13.3759 15.5224 13.3814H22.4555C22.6587 13.3814 22.7747 13.4501 22.8044 13.5876L32.7024 39.828C32.7895 40.1028 32.7024 40.2403 32.4409 40.2401H26.7722C26.6748 40.2503 26.5769 40.2266 26.4967 40.1735C26.4164 40.1205 26.3594 40.0416 26.3362 39.9516L24.1125 33.84ZM15.6097 28.7566H22.4992L22.4009 28.4501L22.2433 27.9648L22.0125 27.2698L21.5694 25.9577L21.1474 24.6967L20.3623 22.3474C20.1454 21.6988 19.9372 21.0478 19.7377 20.3942L19.5148 19.6512L19.2741 18.8369L19.0542 18.0816H19.0105C18.7925 19.0709 18.5268 20.0504 18.2143 21.0168L17.9197 21.9103L17.2113 24.0703L16.8523 25.1707C16.7873 25.3694 16.7228 25.566 16.6581 25.7602L16.4651 26.3357L16.2732 26.8978L16.0822 27.4459L15.8923 27.9804C15.7979 28.2444 15.7034 28.5029 15.6097 28.7566ZM48.749 31.4935H40.1591C40.2644 32.2968 40.5466 33.0703 40.9876 33.7642C41.4752 34.4513 42.1648 34.9885 42.9714 35.3098C44.0646 35.7569 45.2471 35.976 46.438 35.952C47.3829 35.9349 48.3242 35.8372 49.2505 35.6602C50.079 35.5545 50.8908 35.3545 51.6685 35.0645C51.8137 34.955 51.8868 35.0232 51.8868 35.2704V39.186C51.8939 39.2928 51.8713 39.3994 51.8211 39.4951C51.7713 39.57 51.7043 39.6334 51.625 39.6806C50.7624 40.0418 49.8546 40.2975 48.9235 40.4414C47.6586 40.6659 46.373 40.7694 45.0862 40.7503C43.0864 40.7503 41.4007 40.4666 40.0291 39.8995L39.8971 39.8436C38.5786 39.2945 37.414 38.4618 36.4963 37.4119C35.639 36.4226 35.0013 35.2802 34.6212 34.0529C34.2451 32.8414 34.0543 31.5853 34.0547 30.3228C34.0508 28.9442 34.2789 27.5738 34.7306 26.263C35.1656 24.9844 35.8537 23.7956 36.7581 22.7597C37.6501 21.7358 38.7657 20.9063 40.0284 20.3278C41.3073 19.7374 42.8191 19.5254 44.5631 19.5254C46.0097 19.4909 47.4464 19.7583 48.7711 20.3086C49.8849 20.7576 50.8655 21.4576 51.6271 22.3474C52.3414 23.2187 52.8876 24.2024 53.2404 25.253C53.584 26.2656 53.7605 27.3222 53.7637 28.3855C53.7637 28.9903 53.7419 29.5399 53.6984 30.0343L53.6596 30.4577L53.619 30.8594L53.5948 31.063C53.593 31.0773 53.5912 31.0916 53.5893 31.1059C53.5779 31.1968 53.5317 31.2805 53.4594 31.3413C53.3871 31.4021 53.2937 31.4357 53.197 31.4357L53.0774 31.4381L52.9283 31.4453L52.8123 31.4532L52.5411 31.475L52.303 31.4974C52.2382 31.5038 52.1709 31.5098 52.1011 31.5154L51.885 31.5314L51.6542 31.5458L51.4092 31.5578L51.1497 31.5682L51.0144 31.5725L50.7333 31.5797C50.4553 31.5862 50.1704 31.5698 49.8782 31.5497L49.4348 31.519C49.2067 31.5032 48.9778 31.4947 48.749 31.4935ZM40.1591 27.7387H46.097L46.6028 27.7356L46.9466 27.731L47.1692 27.7262L47.4191 27.7181C47.6427 27.697 47.8586 27.6294 48.0513 27.5201V27.2729C48.0426 26.9505 47.9839 26.6311 47.8771 26.3249C47.6419 25.6217 47.1689 25.0109 46.5309 24.5865C45.8928 24.162 45.125 23.9473 44.3453 23.9753C43.6114 23.9333 42.8805 24.0942 42.2417 24.4382C41.6028 24.7822 41.0838 25.2945 40.7477 25.9126C40.449 26.4875 40.2503 27.104 40.1591 27.7387Z" fill="#9999FF"/>
</g>
<defs>
<clipPath id="clip0_185_2053">
<rect width="61" height="56" fill="white"/>
</clipPath>
</defs>
</svg>
