<svg width="92" height="92" viewBox="0 0 92 92" fill="none" xmlns="http://www.w3.org/2000/svg">
<path d="M89.9727 51.8793C89.9727 52.2686 89.8854 52.5602 89.8015 52.7313H70.2609C70.1772 52.5605 70.0901 52.269 70.0901 51.8793C70.0901 51.4906 70.1776 51.1979 70.2622 51.0259H89.7997C89.8849 51.1989 89.9727 51.4921 89.9727 51.8793ZM89.7115 52.8754C89.7114 52.8752 89.713 52.8733 89.7163 52.87C89.7131 52.8739 89.7115 52.8755 89.7115 52.8754ZM70.3499 52.8741C70.3499 52.8742 70.3485 52.8728 70.3457 52.8695C70.3485 52.8724 70.3499 52.874 70.3499 52.8741ZM70.352 50.8824C70.352 50.8826 70.3504 50.8845 70.3472 50.8877C70.3503 50.8839 70.352 50.8823 70.352 50.8824ZM90.1485 51.0259C90.1475 51.0259 90.1466 51.0259 90.1456 51.0259L90.1485 51.0259ZM89.7139 50.8866C89.7099 50.8827 89.708 50.8803 89.708 50.8802C89.7081 50.88 89.71 50.882 89.7139 50.8866Z" stroke="black" stroke-width="4"/>
<mask id="path-2-inside-1_112_281" fill="white">
<path d="M70.4131 52.9389C70.4131 51.3605 71.231 50.084 72.2416 50.084H91.5515C91.218 49.4457 90.7134 49.0317 90.1456 49.0317H69.92C68.9066 49.0317 68.0901 50.314 68.0901 51.8852C68.0901 53.4636 68.9066 54.7372 69.92 54.7372H70.8314C70.5483 54.1804 70.4038 53.5635 70.4102 52.9389"/>
</mask>
<path d="M91.5515 50.084V54.084H98.1547L95.0967 48.2315L91.5515 50.084ZM70.8314 54.7372V58.7372H77.3519L74.3971 52.9245L70.8314 54.7372ZM74.4131 52.9389C74.4131 52.7965 74.4576 52.8569 74.3166 53.0771C74.203 53.2544 73.5634 54.084 72.2416 54.084V46.084C69.9092 46.084 68.3553 47.5519 67.5801 48.762C66.7775 50.015 66.4131 51.5029 66.4131 52.9389H74.4131ZM72.2416 54.084H91.5515V46.084H72.2416V54.084ZM95.0967 48.2315C94.4191 46.9348 92.8249 45.0317 90.1456 45.0317V53.0317C89.409 53.0317 88.8411 52.7527 88.501 52.4917C88.1835 52.248 88.0476 52.0156 88.0063 51.9364L95.0967 48.2315ZM90.1456 45.0317H69.92V53.0317H90.1456V45.0317ZM69.92 45.0317C67.5826 45.0317 66.0288 46.5052 65.2557 47.7133C64.4547 48.9651 64.0901 50.4514 64.0901 51.8852H72.0901C72.0901 51.7478 72.1336 51.8074 71.9942 52.0252C71.8828 52.1994 71.244 53.0317 69.92 53.0317V45.0317ZM64.0901 51.8852C64.0901 53.3199 64.4535 54.8084 65.2581 56.0628C66.0375 57.2777 67.5929 58.7372 69.92 58.7372V50.7372C71.2337 50.7372 71.8741 51.5599 71.9918 51.7434C72.1348 51.9663 72.0901 52.0289 72.0901 51.8852H64.0901ZM69.92 58.7372H70.8314V50.7372H69.92V58.7372ZM74.3971 52.9245C74.4057 52.9416 74.4102 52.9605 74.41 52.9796L66.4104 52.8982C66.3975 54.1665 66.6909 55.4191 67.2656 56.5498L74.3971 52.9245Z" fill="black" mask="url(#path-2-inside-1_112_281)"/>
<path d="M70.4252 43.056L70.4246 43.0551C70.2141 42.7344 70.1259 42.4474 70.0999 42.259L86.4748 31.7383C86.6464 31.8381 86.89 32.0421 87.1113 32.378C87.3209 32.6971 87.4093 32.9833 87.4357 33.1718L71.0576 43.6928C70.8873 43.5938 70.6449 43.3911 70.4252 43.056ZM70.094 42.0805C70.0941 42.0806 70.0939 42.0826 70.0932 42.0863C70.0936 42.0823 70.094 42.0804 70.094 42.0805ZM86.3206 31.6683C86.3205 31.6681 86.3236 31.6687 86.3302 31.6708C86.3239 31.6695 86.3207 31.6685 86.3206 31.6683ZM71.2008 43.7595C71.2069 43.7607 71.21 43.7616 71.2101 43.7618C71.2102 43.762 71.2072 43.7614 71.2008 43.7595Z" stroke="black" stroke-width="4"/>
<mask id="path-5-inside-2_112_281" fill="white">
<path d="M71.2802 43.7833C70.4134 42.4637 70.3947 40.9457 71.2429 40.4037L87.4449 29.9919C86.811 29.6412 86.1598 29.565 85.6811 29.8712L68.7172 40.7703C67.8691 41.3151 67.8863 42.8302 68.7531 44.1527C69.6199 45.4723 71.0057 46.1034 71.8538 45.5586L72.6185 45.0641C72.0779 44.7483 71.6194 44.3095 71.2802 43.7833Z"/>
</mask>
<path d="M71.2802 43.7833L74.6424 41.6163L74.633 41.6017L74.6235 41.5872L71.2802 43.7833ZM71.2429 40.4037L73.3967 43.7744L73.4053 43.7688L71.2429 40.4037ZM87.4449 29.9919L89.6074 33.357L95.2433 29.7352L89.3814 26.4919L87.4449 29.9919ZM85.6811 29.8712L83.5258 26.5015L83.519 26.5059L85.6811 29.8712ZM68.7172 40.7703L70.8791 44.1357L70.8793 44.1356L68.7172 40.7703ZM68.7531 44.1527L65.4077 46.3454L65.4099 46.3488L68.7531 44.1527ZM71.8538 45.5586L74.0157 48.9241L74.0258 48.9175L71.8538 45.5586ZM72.6185 45.0641L74.7905 48.423L80.2532 44.8908L74.6359 41.61L72.6185 45.0641ZM74.6235 41.5872C74.5442 41.4665 74.6152 41.4919 74.6182 41.7561C74.6206 41.9657 74.5406 43.0434 73.3966 43.7744L69.0891 37.0331C67.097 38.306 66.6023 40.4137 66.6187 41.8476C66.6357 43.3362 67.1495 44.7804 67.937 45.9793L74.6235 41.5872ZM73.4053 43.7688L89.6074 33.357L85.2825 26.6268L69.0804 37.0386L73.4053 43.7688ZM89.3814 26.4919C88.135 25.8023 85.7757 25.0624 83.5258 26.5015L87.8365 33.2408C87.215 33.6383 86.5912 33.7055 86.1797 33.6719C85.7958 33.6406 85.5703 33.5262 85.5084 33.4919L89.3814 26.4919ZM83.519 26.5059L66.555 37.405L70.8793 44.1356L87.8433 33.2364L83.519 26.5059ZM66.5553 37.4048C64.5745 38.6773 64.0767 40.7755 64.0923 42.2133C64.1085 43.7027 64.6219 45.1465 65.4077 46.3454L72.0986 41.96C72.0175 41.8364 72.0889 41.8614 72.0918 42.1264C72.0941 42.3398 72.0118 43.4081 70.8791 44.1357L66.5553 37.4048ZM65.4099 46.3488C66.1953 47.5445 67.3097 48.5854 68.6568 49.197C69.9514 49.7848 72.0516 50.1857 74.0157 48.924L69.6919 42.1931C70.8078 41.4763 71.7912 41.8341 71.9641 41.9126C72.1896 42.015 72.1777 42.0805 72.0964 41.9567L65.4099 46.3488ZM74.0258 48.9175L74.7905 48.423L70.4466 41.7051L69.6818 42.1996L74.0258 48.9175ZM74.6359 41.61C74.6385 41.6116 74.6408 41.6137 74.6424 41.6163L67.918 45.9502C68.598 47.0053 69.5173 47.8851 70.6012 48.5181L74.6359 41.61Z" fill="black" mask="url(#path-5-inside-2_112_281)"/>
<path d="M70.7724 59.8999L70.7665 59.8961L70.7724 59.8999ZM70.7724 59.8999C70.7724 59.9 70.7725 59.9 70.7725 59.9L70.7724 59.8999ZM87.1113 71.3951L87.111 71.3955C86.8899 71.7323 86.6467 71.9359 86.4758 72.0354L70.1 61.5142C70.1261 61.3264 70.214 61.041 70.4235 60.7225L70.4236 60.7225L70.4269 60.7174C70.6456 60.3828 70.886 60.1806 71.055 60.0815L87.4354 70.6039C87.4085 70.7922 87.32 71.0773 87.1113 71.3951ZM86.3223 72.1051C86.3224 72.1049 86.3256 72.1039 86.3317 72.1027C86.3253 72.1047 86.3223 72.1053 86.3223 72.1051ZM86.7614 72.219C86.7616 72.219 86.7617 72.2191 86.7618 72.2192L86.7614 72.219ZM70.094 61.6926C70.094 61.6927 70.0936 61.6908 70.0932 61.6868C70.0939 61.6906 70.0941 61.6926 70.094 61.6926ZM71.2079 60.0116C71.2078 60.0117 71.2049 60.0126 71.1995 60.0138C71.2052 60.012 71.2079 60.0114 71.2079 60.0116Z" stroke="black" stroke-width="4"/>
<path d="M68.7173 62.998L68.7172 62.9982L68.7173 62.998ZM68.7173 62.998L68.7177 62.9974L68.7173 62.998Z" stroke="black" stroke-width="4"/>
<mask id="path-9-inside-3_112_281" fill="white">
<path d="M58.5824 43.9242C59.4622 43.1278 59.3989 42.7958 59.7367 42.1777C60.2356 41.2735 60.2413 40.5145 59.9538 39.8446C56.6504 38.0908 53.7812 35.5335 52.5895 31.9513C52.1554 30.6503 52.0605 29.0619 52.1626 27.6992C52.2387 26.6541 51.6911 25.4236 50.9982 24.2377C50.7423 23.9286 50.4333 23.6483 50.1328 23.3637C50.6144 22.803 51.1664 22.149 51.5416 21.0435C52.1094 19.4364 52.0964 15.2188 51.9498 13.4435C51.6594 9.96903 48.1304 8.59765 44.5726 7.45628C44.3037 7.3729 44.0522 7.68484 43.8452 8.21384C41.4862 8.10603 38.5279 8.97284 36.9624 9.08784C35.2259 9.20859 33.5168 9.26321 31.8133 9.31784C24.5065 12.0247 17.5691 11.5747 11.3591 17.8897C8.06581 21.2405 5.175 24.9348 1.99956 28.3748C3.23006 28.3302 4.45481 28.3043 5.73562 28.438C6.45006 28.5142 6.14388 31.0715 5.9455 31.4798C4.58275 34.2772 2.30862 36.1459 0 38.0707C6.6125 41.9031 9.38544 49.023 11.4253 56.3054C12.6725 57.0135 13.8698 57.8059 15.0089 58.6773C15.663 65.2035 16.3228 73.7825 15.985 78.3782C15.9218 78.9777 15.8484 79.5397 15.7493 80.0055C15.7234 80.1449 15.6544 80.3821 15.5768 80.6523C15.226 81.4013 14.3966 82.81 13.8173 84.0693H49.404C48.7959 83.0458 48.0369 81.9619 47.7379 81.3438C47.7207 81.2489 47.7063 81.1468 47.6934 81.0793C47.1443 78.8066 46.7202 73.8774 46.5807 71.5947C46.5592 71.5817 46.5103 71.563 46.4859 71.553L46.483 71.5372C50.1673 72.864 51.1621 73.3484 54.7529 73.679C57.5129 73.9349 57.7904 71.1289 57.8565 70.7753C58.3726 68.0915 57.73 66.0128 57.9715 63.6726C58.1124 62.2667 59.5341 60.4497 59.0266 59.235C58.6859 58.42 58.1497 57.6509 57.3591 56.9393C56.9379 56.5627 54.1132 56.8632 53.6015 56.4995C51.7299 55.1856 52.7318 55.2877 53.9551 53.8861C56.2005 52.0835 57.3218 51.6666 57.9715 50.0666C58.3093 49.2257 56.971 48.599 56.5024 47.6028C56.1933 46.943 56.7295 45.8907 56.7108 45.3287C57.0242 45.0426 58.2633 44.2203 58.5824 43.9271"/>
</mask>
<path d="M59.7367 42.1777L56.2344 40.2455L56.2305 40.2524L56.2267 40.2594L59.7367 42.1777ZM59.9538 39.8446L63.6296 38.267L63.0739 36.9723L61.8295 36.3116L59.9538 39.8446ZM52.5895 31.9513L56.385 30.6886L56.3838 30.6851L52.5895 31.9513ZM52.1626 27.6992L56.1514 27.9979L56.152 27.99L52.1626 27.6992ZM50.9982 24.2377L54.4519 22.2198L54.2873 21.9381L54.0793 21.6868L50.9982 24.2377ZM50.1328 23.3637L47.0985 20.7573L44.6161 23.6473L47.3818 26.2675L50.1328 23.3637ZM51.5416 21.0435L47.77 19.711L47.7618 19.7344L47.7538 19.7579L51.5416 21.0435ZM51.9498 13.4435L55.9362 13.1142L55.9359 13.1103L51.9498 13.4435ZM44.5726 7.45628L45.7945 3.64747L45.776 3.64156L45.7575 3.63582L44.5726 7.45628ZM43.8452 8.21384L43.6626 12.2097L46.5257 12.3405L47.5702 9.67144L43.8452 8.21384ZM36.9624 9.08784L37.2399 13.0782L37.2477 13.0777L37.2555 13.0771L36.9624 9.08784ZM31.8133 9.31784L31.6851 5.31989L31.0343 5.34076L30.4238 5.56694L31.8133 9.31784ZM11.3591 17.8897L8.5071 15.085L8.50633 15.0858L11.3591 17.8897ZM1.99956 28.3748L-0.939604 25.6616L-7.45509 32.7198L2.14433 32.3722L1.99956 28.3748ZM5.73562 28.438L6.15978 24.4606L6.15088 24.4596L5.73562 28.438ZM5.9455 31.4798L9.5415 33.2316L9.54325 33.228L5.9455 31.4798ZM0 38.0707L-2.56149 34.9985L-6.95609 38.6624L-2.00575 41.5315L0 38.0707ZM11.4253 56.3054L7.5735 57.3843L8.01783 58.9706L9.45043 59.7839L11.4253 56.3054ZM15.0089 58.6773L18.989 58.2784L18.8161 56.5534L17.4392 55.5002L15.0089 58.6773ZM15.985 78.3782L19.9629 78.7979L19.9696 78.7348L19.9742 78.6714L15.985 78.3782ZM15.7493 80.0055L11.837 79.1723L11.826 79.2238L11.8164 79.2757L15.7493 80.0055ZM15.5768 80.6523L19.1992 82.3488L19.3337 82.0615L19.4213 81.7566L15.5768 80.6523ZM13.8173 84.0693L10.1834 82.3975L7.57408 88.0693H13.8173V84.0693ZM49.404 84.0693V88.0693H56.4331L52.8429 82.0262L49.404 84.0693ZM47.7379 81.3438L43.8025 82.0593L43.8999 82.5952L44.1371 83.0856L47.7379 81.3438ZM47.6934 81.0793L51.622 80.327L51.604 80.2329L51.5815 80.1398L47.6934 81.0793ZM46.5807 71.5947L50.5733 71.3508L50.4449 69.2484L48.6387 68.1647L46.5807 71.5947ZM46.4859 71.553L42.5505 72.2693L42.942 74.4195L44.9629 75.2517L46.4859 71.553ZM46.483 71.5372L47.8383 67.7738L41.3038 65.4205L42.5477 72.2535L46.483 71.5372ZM54.7529 73.679L55.1222 69.6961L55.1197 69.6959L54.7529 73.679ZM57.8565 70.7753L53.9285 70.02L53.9265 70.03L53.9247 70.0401L57.8565 70.7753ZM57.9715 63.6726L61.9504 64.0832L61.9516 64.0714L57.9715 63.6726ZM59.0266 59.235L62.7175 57.6932L62.7172 57.6924L59.0266 59.235ZM57.3591 56.9393L60.035 53.9661L60.0254 53.9576L57.3591 56.9393ZM53.6015 56.4995L55.9186 53.239L55.9092 53.2323L55.8997 53.2256L53.6015 56.4995ZM53.9551 53.8861L51.451 50.7669L51.1746 50.9888L50.9416 51.2558L53.9551 53.8861ZM57.9715 50.0666L61.6775 51.5717L61.6804 51.5647L61.6832 51.5577L57.9715 50.0666ZM56.5024 47.6028L52.8801 49.2995L52.8829 49.3055L56.5024 47.6028ZM56.7108 45.3287L54.0141 42.3744L52.6517 43.618L52.713 45.4616L56.7108 45.3287ZM61.2668 46.8897C61.9756 46.2481 62.5047 45.6049 62.9046 44.8431C63.0664 44.5349 63.1878 44.2373 63.2203 44.1605C63.2652 44.0547 63.2617 44.0687 63.2468 44.0959L56.2267 40.2594C56.0429 40.5957 55.9206 40.883 55.8548 41.0381C55.7768 41.2223 55.7956 41.1735 55.8211 41.125C55.8679 41.0359 55.9238 40.952 55.9713 40.8931C56.0078 40.8477 56 40.8665 55.898 40.9588L61.2668 46.8897ZM63.2391 44.1098C64.2678 42.2452 64.4554 40.1912 63.6296 38.267L56.278 41.4222C56.1922 41.2221 56.1284 40.9419 56.1505 40.6358C56.1714 40.3463 56.2566 40.2052 56.2344 40.2455L63.2391 44.1098ZM61.8295 36.3116C59.0304 34.8256 57.1321 32.9344 56.385 30.6886L48.794 33.2139C50.4303 38.1326 54.2705 41.3561 58.0782 43.3776L61.8295 36.3116ZM56.3838 30.6851C56.1721 30.0507 56.0737 29.0348 56.1514 27.9979L48.1737 27.4004C48.0473 29.089 48.1386 31.25 48.7952 33.2174L56.3838 30.6851ZM56.152 27.99C56.3266 25.595 55.1426 23.402 54.4519 22.2198L47.5444 26.2555C47.8303 26.7447 48.0114 27.1192 48.1111 27.3924C48.2189 27.6877 48.1549 27.6589 48.1731 27.4083L56.152 27.99ZM54.0793 21.6868C53.6271 21.1406 53.0814 20.6471 52.8838 20.4598L47.3818 26.2675C47.7851 26.6495 47.8575 26.7166 47.9171 26.7885L54.0793 21.6868ZM53.1671 25.97C53.7162 25.3307 54.6961 24.195 55.3293 22.3291L47.7538 19.7579C47.6861 19.9575 47.613 20.0918 47.5375 20.2063C47.4465 20.3443 47.3387 20.4777 47.0985 20.7573L53.1671 25.97ZM55.3131 22.376C55.8299 20.9132 55.9636 18.8677 56.0114 17.4403C56.065 15.8374 56.0244 14.182 55.9362 13.1142L47.9634 13.7727C48.0218 14.4802 48.061 15.8213 48.0158 17.1728C47.9935 17.8405 47.9522 18.4561 47.8929 18.9605C47.8268 19.5222 47.7617 19.7346 47.77 19.711L55.3131 22.376ZM55.9359 13.1103C55.6612 9.82382 53.7684 7.63873 51.7237 6.25913C49.8301 4.98149 47.5453 4.20915 45.7945 3.64747L43.3507 11.2651C45.1577 11.8448 46.4163 12.3288 47.2493 12.8908C47.9311 13.3509 47.948 13.5887 47.9637 13.7766L55.9359 13.1103ZM45.7575 3.63582C43.5135 2.93982 41.8681 4.21316 41.2351 4.90467C40.6227 5.57378 40.2918 6.31763 40.1202 6.75624L47.5702 9.67144C47.6055 9.58105 47.504 9.90443 47.1363 10.3062C46.9358 10.5252 46.5221 10.9149 45.8571 11.1802C45.1159 11.476 44.2406 11.5413 43.3876 11.2767L45.7575 3.63582ZM44.0278 4.21801C42.3714 4.14231 40.6654 4.40628 39.4095 4.62843C37.8883 4.89753 37.1815 5.06097 36.6694 5.09859L37.2555 13.0771C38.3088 12.9997 39.864 12.6722 40.803 12.5061C42.0074 12.2931 42.9601 12.1776 43.6626 12.2097L44.0278 4.21801ZM36.685 5.09747C35.0352 5.21219 33.4004 5.26489 31.6851 5.31989L31.9415 13.3158C33.6331 13.2615 35.4166 13.205 37.2399 13.0782L36.685 5.09747ZM30.4238 5.56694C28.8152 6.16285 27.189 6.59922 25.4515 7.02714C23.7764 7.43968 21.8689 7.87279 20.0378 8.41573C16.217 9.54863 12.243 11.286 8.5071 15.085L14.2111 20.6943C16.6852 18.1784 19.2849 16.9832 22.312 16.0857C23.9049 15.6134 25.4898 15.2568 27.3646 14.795C29.177 14.3487 31.158 13.8262 33.2028 13.0687L30.4238 5.56694ZM8.50633 15.0858C6.76294 16.8596 5.14546 18.7046 3.60832 20.4838C2.0476 22.2903 0.590621 24.0039 -0.939604 25.6616L4.93873 31.0879C6.58394 29.3057 8.16009 27.4522 9.66196 25.7138C11.1874 23.9481 12.662 22.2705 14.2119 20.6935L8.50633 15.0858ZM2.14433 32.3722C3.35525 32.3283 4.33943 32.314 5.32037 32.4164L6.15088 24.4596C4.5702 24.2947 3.10488 24.3321 1.8548 24.3774L2.14433 32.3722ZM5.31147 32.4155C4.06433 32.2825 3.22072 31.5798 2.77959 31.0025C2.39686 30.5016 2.2686 30.0527 2.23342 29.9211C2.15988 29.646 2.18714 29.5518 2.18346 29.7656C2.18084 29.9178 2.16403 30.0991 2.14246 30.2407C2.13189 30.3101 2.12589 30.3321 2.13131 30.3094C2.13407 30.2978 2.14549 30.2504 2.16836 30.1778C2.1854 30.1237 2.24048 29.9523 2.34775 29.7316L9.54325 33.228C9.76914 32.7631 9.87574 32.3222 9.91417 32.1606C9.97151 31.9195 10.0164 31.6742 10.0513 31.4452C10.1206 30.9902 10.1729 30.4508 10.1823 29.9032C10.1906 29.4171 10.1729 28.6437 9.96201 27.855C9.85817 27.4665 9.63818 26.8021 9.13621 26.1452C8.57585 25.4119 7.58553 24.6126 6.15978 24.4606L5.31147 32.4155ZM2.3495 29.728C1.42513 31.6255 -0.131497 32.9725 -2.56149 34.9985L2.56149 41.143C4.74875 39.3193 7.74037 36.9288 9.5415 33.2316L2.3495 29.728ZM-2.00575 41.5315C3.10118 44.4913 5.54247 50.1333 7.5735 57.3843L15.277 55.2265C13.2284 47.9128 10.1238 39.3149 2.00575 34.6099L-2.00575 41.5315ZM9.45043 59.7839C10.5391 60.402 11.5843 61.0938 12.5787 61.8544L17.4392 55.5002C16.1553 54.5181 14.8058 53.6249 13.4001 52.8269L9.45043 59.7839ZM11.0289 59.0762C11.6897 65.6703 12.3036 73.8965 11.9958 78.085L19.9742 78.6714C20.342 73.6685 19.6363 64.7368 18.989 58.2784L11.0289 59.0762ZM12.0071 77.9585C11.9472 78.5257 11.8911 78.9183 11.837 79.1723L19.6615 80.8386C19.8058 80.1611 19.8963 79.4296 19.9629 78.7979L12.0071 77.9585ZM11.8164 79.2757C11.8234 79.238 11.8293 79.2104 11.8325 79.1962C11.8358 79.1813 11.8378 79.173 11.8379 79.1728C11.838 79.1724 11.837 79.1765 11.8344 79.1862C11.8319 79.1958 11.8284 79.2087 11.8238 79.2258C11.8023 79.3044 11.775 79.399 11.7322 79.5481L19.4213 81.7566C19.4638 81.6085 19.6111 81.1179 19.6821 80.7353L11.8164 79.2757ZM11.9543 78.9558C11.8393 79.2014 11.6244 79.5954 11.2579 80.2784C10.9336 80.8831 10.5293 81.6456 10.1834 82.3975L17.4511 85.741C17.6845 85.2337 17.9846 84.6622 18.3075 84.0605C18.5883 83.537 18.9634 82.8522 19.1992 82.3488L11.9543 78.9558ZM13.8173 88.0693H49.404V80.0693H13.8173V88.0693ZM52.8429 82.0262C52.4977 81.4453 52.1054 80.8401 51.8293 80.4064C51.6809 80.1733 51.5628 79.9852 51.469 79.8287C51.3684 79.661 51.3361 79.5965 51.3388 79.602L44.1371 83.0856C44.4078 83.6452 44.8098 84.2769 45.0808 84.7026C45.411 85.2213 45.7022 85.6698 45.9651 86.1123L52.8429 82.0262ZM51.6734 80.6282C51.674 80.6315 51.6735 80.629 51.6716 80.6174C51.6695 80.6049 51.6673 80.5912 51.6633 80.5664C51.66 80.5458 51.6545 80.5112 51.6486 80.4761C51.6429 80.4418 51.6337 80.388 51.622 80.327L43.7648 81.8316C43.7595 81.8043 43.757 81.7886 43.7581 81.7954C43.7591 81.8014 43.7607 81.8109 43.7648 81.8362C43.7709 81.8742 43.7852 81.9646 43.8025 82.0593L51.6734 80.6282ZM51.5815 80.1398C51.1283 78.2642 50.7158 73.6834 50.5733 71.3508L42.5882 71.8385C42.7246 74.0714 43.1602 79.3489 43.8053 82.0187L51.5815 80.1398ZM48.6387 68.1647C48.5383 68.1044 48.4531 68.0592 48.3974 68.0306C48.3387 68.0005 48.2881 67.9763 48.2507 67.9589C48.178 67.925 48.1172 67.8991 48.0833 67.8848C48.0471 67.8696 48.0165 67.8573 48.0039 67.8521C47.9782 67.8418 47.9969 67.8493 48.0089 67.8543L44.9629 75.2517C44.9797 75.2586 44.994 75.2644 44.9999 75.2668C45.0034 75.2682 45.0067 75.2695 45.0084 75.2702C45.0105 75.271 45.0114 75.2714 45.0121 75.2717C45.0161 75.2733 45.0037 75.2683 44.9855 75.2607C44.9695 75.254 44.9265 75.2358 44.8698 75.2093C44.8404 75.1956 44.7974 75.1751 44.7456 75.1485C44.6968 75.1235 44.6178 75.0817 44.5228 75.0246L48.6387 68.1647ZM50.4212 70.8366L50.4183 70.8208L42.5477 72.2535L42.5505 72.2693L50.4212 70.8366ZM45.1277 75.3006C48.7748 76.6139 50.2195 77.2785 54.3862 77.6622L55.1197 69.6959C52.1046 69.4183 51.5599 69.114 47.8383 67.7738L45.1277 75.3006ZM54.3837 77.6619C55.7844 77.7918 57.1462 77.546 58.3481 76.8726C59.5194 76.2164 60.2791 75.3005 60.7568 74.4938C61.6272 73.0239 61.8143 71.3718 61.7884 71.5105L53.9247 70.0401C53.9076 70.1313 53.8913 70.2373 53.8906 70.2417C53.885 70.2768 53.8814 70.299 53.8775 70.3211C53.8701 70.3634 53.8628 70.3984 53.8549 70.4294C53.8341 70.5114 53.8267 70.496 53.8731 70.4176C53.9281 70.3247 54.0969 70.0844 54.4378 69.8934C54.6048 69.7998 54.7697 69.7436 54.9116 69.716C55.0497 69.6891 55.1276 69.6966 55.1222 69.6961L54.3837 77.6619ZM61.7845 71.5306C62.1389 69.6879 62.081 68.095 62.0104 66.8656C61.9341 65.5381 61.8714 64.8485 61.9504 64.0832L53.9926 63.262C53.8301 64.8369 53.9679 66.3568 54.0235 67.3246C54.0848 68.3905 54.0902 69.1789 53.9285 70.02L61.7845 71.5306ZM61.9516 64.0714C61.9344 64.2424 61.9033 64.2524 62.0124 63.9617C62.164 63.5573 62.2044 63.5034 62.4612 62.8549C62.6371 62.4108 62.8973 61.717 63.0347 60.9388C63.1742 60.1486 63.2458 58.9578 62.7175 57.6932L55.3357 60.7769C55.0612 60.1196 55.1453 59.6114 55.1566 59.5475C55.1658 59.4955 55.1569 59.5717 55.0232 59.9094C54.9603 60.0681 54.8954 60.223 54.8048 60.4421C54.7218 60.6428 54.6197 60.8915 54.5219 61.1522C54.3406 61.6355 54.079 62.3999 53.9914 63.2738L61.9516 64.0714ZM62.7172 57.6924C62.1349 56.2993 61.239 55.0497 60.035 53.9662L54.6833 59.9125C55.0605 60.2521 55.237 60.5407 55.3361 60.7776L62.7172 57.6924ZM60.0254 53.9576C59.5602 53.5416 59.0966 53.3129 58.8105 53.1919C58.5063 53.0634 58.2323 52.9861 58.034 52.9383C57.6455 52.8448 57.2819 52.8026 57.0319 52.7796C56.5314 52.7337 55.9707 52.7233 55.599 52.7155C55.145 52.7058 54.8715 52.6988 54.6803 52.6827C54.5876 52.6749 54.6235 52.6731 54.7338 52.6968C54.7407 52.6983 55.2985 52.7983 55.9186 53.239L51.2843 59.76C51.701 60.0561 52.0944 60.2236 52.3506 60.3172C52.6209 60.416 52.8653 60.4778 53.0514 60.5179C53.4158 60.5963 53.7596 60.6335 54.0102 60.6546C54.5058 60.6963 55.0607 60.7058 55.4296 60.7137C55.8806 60.7232 56.1371 60.7311 56.3006 60.7461C56.3826 60.7536 56.3129 60.7526 56.1615 60.7161C56.0817 60.6969 55.9121 60.6521 55.6958 60.5607C55.4976 60.4769 55.1054 60.29 54.6928 59.9211L60.0254 53.9576ZM55.8997 53.2256C55.714 53.0952 55.6295 53.0278 55.6049 53.0071C55.5647 52.9733 55.7012 53.0792 55.877 53.3099C56.056 53.5449 56.4201 54.0976 56.5324 54.9297C56.6556 55.8423 56.4146 56.6127 56.1376 57.1257C55.9066 57.5537 55.6541 57.7973 55.6408 57.8107C55.6165 57.835 55.6147 57.8342 55.7613 57.7054C56.0007 57.495 56.4717 57.0858 56.9687 56.5164L50.9416 51.2558C50.8269 51.3872 50.7139 51.4908 50.4799 51.6965C50.3897 51.7757 50.1789 51.9589 49.9835 52.1542C49.7991 52.3387 49.4135 52.7407 49.0978 53.3257C48.7361 53.9956 48.4588 54.9216 48.6043 55.9998C48.7389 56.9975 49.1841 57.7259 49.5133 58.1579C50.0829 58.9056 50.854 59.458 51.3033 59.7733L55.8997 53.2256ZM56.4593 57.0053C56.9526 56.6092 57.3882 56.2858 57.8113 55.9741C58.2047 55.6842 58.6809 55.3373 59.1064 54.9865C60.0945 54.1718 61.0326 53.1599 61.6775 51.5717L54.2654 48.5616C54.249 48.6022 54.2405 48.616 54.2422 48.6129C54.2428 48.612 54.2443 48.6095 54.2465 48.6062C54.2476 48.6047 54.2485 48.6034 54.2493 48.6023C54.2501 48.6012 54.2505 48.6007 54.2505 48.6007C54.2505 48.6007 54.2499 48.6015 54.2485 48.6031C54.2472 48.6047 54.2449 48.6073 54.2417 48.6109C54.2351 48.6181 54.224 48.6299 54.2066 48.6469C54.1709 48.6819 54.1126 48.7354 54.0169 48.8142C53.8002 48.9929 53.5345 49.1883 53.0659 49.5335C52.6269 49.857 52.0803 50.2617 51.451 50.7669L56.4593 57.0053ZM61.6832 51.5577C62.2415 50.1679 62.046 48.8368 61.6078 47.8473C61.2458 47.0298 60.7179 46.443 60.5002 46.2034C60.3719 46.0622 60.2333 45.9181 60.159 45.8401C60.0671 45.7435 60.0187 45.6913 59.9832 45.6509C59.9006 45.5568 60.0075 45.657 60.1219 45.9001L52.8829 49.3055C53.2315 50.0466 53.6815 50.5988 53.9711 50.9286C54.1217 51.1002 54.2666 51.253 54.3654 51.3568C54.4819 51.479 54.5313 51.5305 54.5785 51.5825C54.6207 51.6288 54.6013 51.6112 54.5575 51.5517C54.5146 51.4935 54.4025 51.3341 54.293 51.0867C54.1788 50.8288 54.0549 50.447 54.03 49.968C54.0042 49.4727 54.0911 48.9956 54.2598 48.5756L61.6832 51.5577ZM60.1247 45.9061C60.4065 46.5078 60.4106 47.0076 60.4051 47.1782C60.3995 47.3506 60.3737 47.4251 60.4011 47.3029C60.4127 47.251 60.4275 47.1904 60.4531 47.0877C60.4746 47.0011 60.5105 46.8585 60.5428 46.7165C60.5756 46.5726 60.6188 46.3696 60.6524 46.1398C60.6849 45.9174 60.7216 45.5854 60.7086 45.1957L52.713 45.4616C52.6991 45.0424 52.7802 44.7745 52.7425 44.9402C52.732 44.9862 52.7187 45.04 52.6901 45.1548C52.6655 45.2535 52.6292 45.3992 52.5943 45.5553C52.5286 45.8488 52.4279 46.3452 52.4093 46.9181C52.3907 47.4891 52.4437 48.3679 52.8801 49.2995L60.1247 45.9061ZM59.4076 48.2829C59.3101 48.3718 59.2844 48.3825 59.4653 48.249C59.6013 48.1487 59.7684 48.0292 59.9707 47.8846C60.1589 47.75 60.3815 47.591 60.5788 47.445C60.7317 47.3318 61.0318 47.1087 61.2889 46.8724L55.8759 40.9818C55.9736 40.8921 55.999 40.8818 55.8201 41.0142C55.6855 41.1138 55.5189 41.2331 55.3182 41.3765C55.1317 41.5099 54.9104 41.6679 54.7159 41.8114C54.5663 41.9218 54.2682 42.1424 54.0141 42.3744L59.4076 48.2829Z" fill="black" mask="url(#path-9-inside-3_112_281)"/>
</svg>
