<svg width="69" height="69" viewBox="0 0 69 69" fill="none" xmlns="http://www.w3.org/2000/svg">
<path d="M58.933 20.3361L40.2141 1.43525C39.9108 1.13203 39.5807 0.875977 39.2235 0.660352C39.1292 0.606445 39.0349 0.552539 38.9338 0.505371C38.8731 0.47168 38.8058 0.444727 38.7451 0.417773C38.1387 0.148242 37.4716 0 36.791 0H13.5439C10.8621 0 8.625 2.16973 8.625 4.85156V64.1484C8.625 66.8303 10.8621 69 13.5439 69H55.5234C58.2053 69 60.3076 66.8303 60.3076 64.1484V23.7524C60.3076 22.4722 59.8359 21.2458 58.933 20.3361ZM39.2842 7.43906L52.8146 21.0234H39.2842V7.43906ZM55.4561 64.1484H13.4766V4.85156H34.4326V21.0234C34.4326 23.7053 36.6697 25.875 39.3516 25.875H55.4561V64.1484Z" fill="black"/>
</svg>
