<svg width="87" height="70" viewBox="0 0 87 70" fill="none" xmlns="http://www.w3.org/2000/svg">
<path d="M70.5788 17.4863L64.1081 10.9785C62.6761 9.55093 60.7413 8.74998 58.725 8.75H27.8944C25.8825 8.75 23.9386 9.55664 22.5112 10.9785L16.0406 17.4863H0V52.4453H8.7C11.0925 52.4453 13.0228 50.5039 13.0364 48.1113H14.2734L25.7738 58.5566C29.9742 61.9883 35.8059 62.0703 40.1287 59.0762C41.828 60.5527 43.6631 61.25 45.7158 61.25C48.1898 61.25 50.5144 60.2383 52.3495 57.9688C55.3537 59.1582 58.9017 58.3242 61.0495 55.6719L64.6111 51.2559C65.3723 50.3125 65.8481 49.2324 66.0928 48.1113H73.9636C73.9772 50.5039 75.9211 52.4453 78.3 52.4453H87V17.4863H70.5788ZM6.525 48.0703C5.32875 48.0703 4.35 47.0859 4.35 45.8828C4.35 44.6797 5.32875 43.6953 6.525 43.6953C7.72125 43.6953 8.7 44.6797 8.7 45.8828C8.7 47.0996 7.72125 48.0703 6.525 48.0703ZM59.5406 47.127L55.9927 51.5293C55.612 51.9941 54.9323 52.0762 54.4566 51.6934L51.2077 49.041L47.1295 54.0312C46.3139 55.0293 45.0905 54.6875 44.6827 54.3594L39.6802 50.0527L37.5595 52.6777C35.67 55.0156 32.2308 55.3711 30.0422 53.5801L16.8155 41.5488H13.05V24.0352H18.7458L27.1331 15.6133C27.405 15.5039 27.6361 15.4082 27.908 15.2988H35.6156L30.3548 20.1523C26.3583 23.8301 26.1272 30.0371 29.7567 34.002C31.7686 36.2168 38.0761 39.6348 43.5544 34.6035L44.6691 33.5781L59.3775 45.582C59.8397 45.9648 59.9077 46.6621 59.5406 47.127ZM73.95 41.5488H64.5431C64.2305 41.166 63.877 40.8105 63.4964 40.4961L49.5356 29.0938L51.2348 27.5352C52.1184 26.7148 52.1864 25.334 51.3708 24.4453L49.8891 22.8457C49.0734 21.957 47.7005 21.9023 46.8169 22.709L39.3131 29.627C38.0217 30.8164 35.8195 30.9121 34.6097 29.627C33.3455 28.2734 33.4542 26.1953 34.7728 24.9922L43.6903 16.7754C44.6962 15.8457 46.0012 15.3398 47.3606 15.3398L58.7386 15.3125C59.0241 15.3125 59.2959 15.4219 59.4862 15.627L67.8736 24.0488H73.95V41.5488ZM80.475 48.0703C79.2787 48.0703 78.3 47.0859 78.3 45.8828C78.3 44.6797 79.2787 43.6953 80.475 43.6953C81.6712 43.6953 82.65 44.6797 82.65 45.8828C82.65 47.0996 81.6712 48.0703 80.475 48.0703Z" fill="black"/>
</svg>
