<svg width="74" height="74" viewBox="0 0 74 74" fill="none" xmlns="http://www.w3.org/2000/svg">
<path d="M18.5 9.25V18.5H9.25V9.25H18.5ZM4.625 4.625V23.125H23.125V4.625H4.625ZM41.625 16.1875V25.4375H32.375V16.1875H41.625ZM27.75 11.5625V30.0625H46.25V11.5625H27.75ZM18.5 37V46.25H9.25V37H18.5ZM4.625 32.375V50.875H23.125V32.375H4.625Z" fill="black"/>
<path d="M50.875 23.125V37H37V50.875H23.125V69.375H69.375V23.125H50.875ZM41.625 41.625H50.875V50.875H41.625V41.625ZM37 64.75H27.75V55.5H37V64.75ZM50.875 64.75H41.625V55.5H50.875V64.75ZM64.75 64.75H55.5V55.5H64.75V64.75ZM64.75 50.875H55.5V41.625H64.75V50.875ZM55.5 37V27.75H64.75V37H55.5Z" fill="black"/>
</svg>
